<?xml version="1.0" encoding="utf-8"?>
<!-- Generator: Adobe Illustrator 28.0.0, SVG Export Plug-In . SVG Version: 6.00 Build 0)  -->
<svg version="1.1" id="Lager_2_00000168806345795943223470000004409565590162607530_"
	 xmlns="http://www.w3.org/2000/svg" xmlns:xlink="http://www.w3.org/1999/xlink" x="0px" y="0px" viewBox="0 0 571.8 577.3"
	 style="enable-background:new 0 0 571.8 577.3;" xml:space="preserve">
<style type="text/css">
	.st0{fill:#261C14;}
</style>
<g id="Lager_1-2">
	<path class="st0" d="M499.5,344.1l5.7-22.1l49.4,23.3L499.5,344.1z M469.8,353.2l101.4,0.6l0.6-2.4l-89.1-43
		c-8.4-4-8.3-6.8-8.2-13.2l-1.4-0.3l-5.6,22.4l1.4,0.3c1.6-3.4,2.9-9.3,10-7.5c6.6,1.6,16.9,7.4,23.3,10.4l-6,23.3
		c-6.5,0-20.6,0.6-26.6-0.9c-5.8-1.5-4.3-7.1-4.3-10.1l-1.4-0.3l-6.9,27.8l1.4,0.3C460.2,355.4,461.8,353.3,469.8,353.2
		 M427.1,407.1l80.4,53.5c8.2,5.5,6.5,7.8,4.5,13.6l1.2,0.8c3.7-5.5,7.3-10.9,10.9-16.4l-1-0.7c-5.3,3-5.3,6.9-14.3,0.9l-61.6-41
		l91.3,19.3c3.2-4.8,6.3-9.5,9.5-14.2l-1-0.7c-5.4,3.1-5.1,6.8-14.2,0.7l-69.6-46.3c-8.1-5.4-6.5-7.7-4.7-13.5l-1.1-0.8l-10.9,16.4
		l1.1,0.8c5.1-3.2,5.3-6.9,14.3-0.9l69.7,46.4l-36.6-7.7c-22-4.5-44.1-8.1-66.2-12.4L427.1,407.1L427.1,407.1z M427.2,530
		c5.6,8.1,3.1,9.7-0.9,14.2l0.8,1.1c5.5-3.8,10.8-7.4,16.3-11.2l-0.7-1c-6,0.8-7.5,4.4-13.6-4.5l-41.8-61.1l77.5,52
		c4.7-3.2,9.4-6.5,14.1-9.7l-0.7-1c-6.1,0.8-7.3,4.4-13.5-4.6l-47.2-69c-5.5-8-3.2-9.6,0.7-14.3l-0.8-1.1l-16.3,11.2l0.8,1.1
		c6-1.1,7.5-4.4,13.6,4.5l47.3,69.1l-31.1-20.8c-18.8-12.4-37.9-24-56.8-36.2l-2.3,1.6L427.2,530L427.2,530z M331.7,502.7l22.4-4.6
		l0.7,54.5L331.7,502.7z M326.5,465.7l-28.1,6l0.3,1.4c5.5-0.7,8.2-0.2,11.7,7l43.9,91.4l2.4-0.5l-0.4-98.9
		c-0.1-9.3,2.5-10.5,8.2-13.1l-0.3-1.4l-22.6,4.8l0.3,1.4c3.8,0,9.6-1.4,11.1,5.7c1.4,6.6,0.8,18.4,0.8,25.5l-23.6,4.9
		c-2.8-5.9-9.6-18.3-10.9-24.3c-1.2-5.9,4.5-7,7.2-8.3L326.5,465.7L326.5,465.7z M212.9,533.7c-2.8,10.7-6.2,21.7-8.7,32.5l5.5,1.4
		c7.2,1.8,14.4,3.4,21.4,5.2l4.9,1.2c4.2,1,8.6,2.3,12.8,3.4l0.3-1.3c-4.6-3.7-8.2-2.7-5.7-13l20.2-81.1c2.4-9.4,5.2-8.7,11.1-9
		l0.3-1.3l-45.5-11.3c-3.1,10.5-5.3,21.2-8.7,31.7l0.9,0.4c2.8-8.2,10.3-28.4,18.1-26.5c5.8,1.5,11.4,3.2,17.1,4.6l-11.4,45.6
		l-9.6-2.4c-10-2.5-8.1-7.6-8-19l-1.1-0.3c-1.7,8.2-3.8,16.4-5.8,24.5c-0.7,2.8-1.4,5.7-2.5,8.6l1.1,0.3c5.1-8.9,7.4-13.6,15.6-11.5
		l9.6,2.4L232.3,570c-5.4-1.3-10.9-2.4-16.2-3.7c-6.9-1.7-5-11.2-4.1-18.8c0.7-4.6,1.1-9.1,1.8-13.5L212.9,533.7L212.9,533.7z
		 M131.6,530.2l-0.7,1.2l22.9,13.7l0.7-1.2c-3.5-5-7.1-5-1.6-14.1l34.7-58c2.7-4.5,14.2-23.7,18.5-21.1c6,3.6-2.9,13.3,1.7,16.1
		c1.7,1,4.3,0,5.8-2.5c3.5-5.8-0.2-13.1-3.6-15.1c-13.6-8.2-30.7,18-39.1,32c-8.8,14.7-17.2,29.6-26.2,44c-2.9,4.5-5.4,7-9.6,5.9
		L131.6,530.2L131.6,530.2z M92.6,452.6c-8.3,7.4-17.1,14.7-25.2,22.3l3.9,4.2c5,5.5,10.1,10.8,15.1,16.1l3.4,3.7
		c2.9,3.2,5.9,6.7,8.9,9.9l1-1c-1.8-5.6-5.4-6.8,2.4-14l61.5-56.6c7.1-6.6,9.1-4.4,14.2-1.4l1-0.9l-31.8-34.5
		c-8.4,7.1-16.1,14.8-24.7,21.7l0.5,0.8c6.9-5.3,24.2-18.1,29.6-12.2c4.1,4.4,7.8,8.9,11.8,13.3l-34.6,31.9l-6.7-7.3
		c-7-7.6-2.6-10.8,3.8-20.3l-0.7-0.8c-5.9,5.9-12.2,11.6-18.3,17.2c-2.2,2-4.3,4-6.8,5.8l0.7,0.8c9.1-4.6,13.6-7.3,19.4-1.1l6.7,7.3
		l-39,35.9c-3.8-4.1-7.8-8-11.5-12c-4.8-5.2,2-12.1,7-17.9c3.1-3.5,6-7,8.9-10.3L92.6,452.6L92.6,452.6z M8.4,358.6l-1.3,0.5
		c2,5.4,4,10.7,6,16l91.6-12.6L28,415l5.5,14.6l1.3-0.5c0.8-5.2-1.6-8.1,7.5-11.5l79-27.8c9.4-3.2,10.3-0.6,14,4.3l1.3-0.5l-8-21.4
		l-1.2,0.4c0.9,5.6,3.2,11.3-6.4,14.6l-73,25.8c25.4-17.9,50.4-35.6,76.2-53.4l-0.7-1.9c-32.9,4.4-65.2,8.4-98.1,13l78.9-31.7
		c7.1-3,9.3,1.1,11.9,4.6l1.3-0.5l-9.3-24.9l-1.3,0.5c-0.4,5.1,2.3,8.4-6.4,11.8l-78.7,31.8C12.9,365.8,12.1,363.2,8.4,358.6
		 M56.6,255.5c19.4,0.8,52.3,7.3,51.6,24.7c-0.8,17.4-34.4,20.9-53.5,20.1c-18-0.8-52.6-7.6-51.9-24.1
		C3.5,258.6,36.9,254.7,56.6,255.5 M56.9,246.2c-26.3-1.1-56,8.9-56.8,29.7c-0.9,20.6,27.8,33,54.1,34.1
		c26.4,1.1,55.9-8.7,56.8-29.4C111.8,259.9,83.2,247.4,56.9,246.2 M97.3,130.8l0.6,0l-0.2-0.5l-27.7-21.2c-2.3-1.9-4.5-2-5.5-0.6
		c-7.2,9.2-14.3,18.8-21.2,28.2c-0.3,0.4-0.1,0.9,0.4,1.3c1.5,1.1,4.9-1.7,6.4-2c2.3-0.2,5.4,2.1,7.4,3.5l66.9,49.3
		c2.1,1.6,4.9,3.8,5.5,6c0.5,1.7-1.2,5.8,0,6.7c0.5,0.4,1,0.5,1.2,0.1l12.6-17.1c0.3-0.4,0-0.8-0.5-1.1c-1.2-0.9-4.7,2.3-6.5,2.5
		c-2.4,0.1-5.4-1.7-7.8-3.4l-28.9-21.3l3.8-5.2c4.8-6.6,18.1,2.8,19.2,1.3c0.3-0.4,0-0.8-0.5-1.1c-3.3-2.8-7.5-5.4-11-7.9
		c-5.1-3.8-10-7.5-15.1-11.3c-0.5-0.4-1.1-0.4-1.2-0.1c-1,1.4,10.3,11.2,5.9,17.2l-3.8,5.2l-42.5-31.3c2.9-4,5.7-7.9,8.6-11.9
		c1.5-2,3.1-2.3,6.5-1.3C74.3,116.2,92,127.5,97.3,130.8 M178.6,144.9c-11.3,8.6-35.1-16.9-45.4-30.6c-9.8-12.9-28.2-43.8-17.6-51.8
		c11.4-8.7,35.4,16.5,45.9,30.4C172,106.8,189.9,136.4,178.6,144.9 M167.8,88.1c-14.7-19.4-40.3-39.3-54.4-28.6
		c-14,10.6-1.6,40.5,13.1,59.9c14.6,19.3,40,39.3,54.1,28.7C194.8,137.3,182.5,107.4,167.8,88.1 M238.4,117.5
		c0.4-0.1,0.4-0.6,0.2-1.2c-0.6-1.9-5.1-1.3-6.4-2.2c-1.9-1-3.2-4.8-3.9-7.2l-28.1-88.2l6.5-2.1c5.9-1.9,11.4,10.8,14.2,17.7
		c0.6,1.4,2.7,8,3.6,7.8c0.4-0.1,0.4-0.8,0.3-1.2c-2.8-8.7-5.2-17.4-8-26.1c-0.8-2.6-2.4-4.1-4.2-3.5l-34.8,11.1
		c-3.8,1.2,0.2,10.4,1.6,14.5c0.8,2.7,7.3,22.8,7.8,23.6c0.1-0.2,0.1-0.7,0.1-0.8l-0.9-5.5c-1.4-9.1-8.5-28.2-0.4-30.8l6.8-2.1
		l28.1,88.2c0.8,2.5,1.7,5.9,1,8.1c-0.6,1.7-4.4,4-3.9,5.5c0.2,0.6,0.5,1,0.9,0.8L238.4,117.5L238.4,117.5z M299.7,55.5
		c0.1,17.4-3.1,51.8-17.3,52c-14.2,0.1-18-34.6-18.1-51.7c-0.1-16.2,3.6-52,16.9-52.1C295.4,3.6,299.6,38.1,299.7,55.5 M307.7,55.5
		c-0.2-24.4-8.8-55.6-26.5-55.5c-17.6,0.1-25.5,31.5-25.3,55.9c0.2,24.2,8.6,55.5,26.2,55.3C299.8,111.1,307.9,79.7,307.7,55.5
		 M334.5,239.1c-3.9,0-8.1,0.1-12,0.1c0,0-24.3-0.1-30.5-0.1h-4.7c0,11,0,20.4,0,30.5h0.9c0.4-4,0.9-8,1.4-12.3
		c0.8-6.9,1.3-15.3,7.7-15.7c10.8-0.6,15.3-0.6,20-0.6c1.3,0,4,1.4,3.1,7.3c-1.1,6.9-1.2,16-1.2,22.8c0,5-0.8,9.3-2.9,11.8
		c-3.4,4-9.7,2.5-17.5,2.5c-6.4,0-6.6-4.6-6.6-13.6h-1.1v30.9h1.1c0-9.6-0.1-15,6.6-15c11.1,0,17.4,0.1,19.4,5.2
		c2.9,7.2,3.9,22.6,1.8,32c-0.1,0.6-0.3,1.2-0.5,1.8c-0.8,2.5-1.8,4.5-2.8,6.1c-1.2,1.7-3.2,3.1-5.3,3.1c-3,0-7.5,0-15.2,0
		c-7.3-0.1-9.4-19.7-10.1-27.5h-0.8c-0.7,7.8-2.8,27.5-10.1,27.5c-7.7,0.1-12.2,0-15.2,0c-2.1,0-4-1.4-5.2-3.1
		c-1.1-1.5-2.1-3.5-2.8-6.1c-0.2-0.6-0.3-1.1-0.5-1.8c-2.1-9.4-1.2-24.8,1.8-32c2.1-5.1,8.3-5.2,19.4-5.2c6.7,0,6.6,5.4,6.6,15h1.1
		v-30.9h-1.1c0,9-0.2,13.6-6.6,13.6c-7.8,0-14.1,1.6-17.5-2.5c-2.1-2.4-2.9-6.8-2.9-11.8c0-6.9-0.1-15.9-1.2-22.8
		c-0.9-5.9,1.8-7.3,3.1-7.3c4.7,0,9.3,0,20,0.6c6.4,0.4,6.9,8.8,7.7,15.7c0.5,4.3,1,8.3,1.4,12.3h0.9c0-10.1,0-19.5,0-30.5h-4.7
		c-6.2,0-30.5,0.1-30.5,0.1c-3.9,0-8.1-0.1-12-0.1v1.3c1,0,4.8,0.7,6.3,4.4c0.1,0.4,0.3,0.8,0.4,1.2c1.4,6.2,1.4,15.8,1.4,21.9
		c0,11,6.2,18.7,12.7,19c0.2,0,0.5,0,0.7,0h0.8c-3.3,0-6.6,2-9.4,4.4c-4.7,4-7.2,12.2-7.1,21.2c0.1,13.2,6.4,23.2,13.6,25.3
		c0.6,0.2,1.2,0.3,1.8,0.3l0,0l27.1,0h0.8l27.1,0l0,0c0.6-0.1,1.2-0.2,1.8-0.3c7.2-2,13.5-12,13.6-25.3c0.1-9-2.5-17.2-7.1-21.2
		c-2.8-2.4-6.2-4.4-9.4-4.4h0.8c0.2,0,0.5,0,0.7,0c6.5-0.3,12.7-8,12.7-19c0-6.1-0.1-15.7,1.4-21.9c0.1-0.4,0.2-0.8,0.4-1.2
		c1.5-3.7,5.3-4.4,6.3-4.4L334.5,239.1L334.5,239.1z M396.3,31.1c0.4-1.2,0.5-2.3,0.2-3.2c-1.4-7.5-7.9-12.7-13.1-14.5
		c-16.7-6-35.5,22.2-43.6,45s-11.2,55.6,5.5,61.6c3.5,1.2,18.9,2.5,21.4-4.5l9.1-25.5c2.9-8.1,4.6-7.9,9.5-8.2
		c0.5,0,0.9-0.3,1.1-0.9c0.3-0.7,0.1-1.1-0.4-1.3c-6.1-2.2-12.2-4.4-18.3-6.6c-0.4-0.2-0.9,0.2-1.1,0.8c-0.7,1.9,3.1,4.1,3.7,5.6
		c0.9,2.1-0.4,5.8-1.3,8.2l-10.5,29.3c-4.2,0.8-8.4,0.9-12.1-0.4c-12.5-4.5-3.9-39.4,1.5-54.5c4.9-13.8,21.5-50,33.1-45.8
		c9.9,3.5,9.4,18.7,6.1,33c-0.7,3.3-1.7,6.6-2.6,10c-0.2,0.6-0.2,0.9,0.3,1.1c0.3,0.1,0.8-0.4,1-1C389.5,50.1,392.9,40.4,396.3,31.1
		 M449,87.2c-6,8.2-18.7,20.9-25.3,16.1l-6.3-4.7l32.8-44.4c2.6,1.9,5.4,3.6,8.1,5.6C463.9,63.9,454.1,80.3,449,87.2 M455.8,92
		c9.4-12.8,13-29.1,4.6-35.3L441,42.4c-0.4-0.3-0.8,0-1.1,0.5c-1.1,1.5,1.8,5.1,2,6.4c0.3,2.2-2.1,5.4-3.6,7.5l-49.2,66.7
		c-5.3,7.2-6.5,5.9-11.4,5c-0.5-0.1-1,0-1.4,0.6c-0.4,0.5-0.5,1-0.1,1.2l16.6,12.3c0.4,0.3,0.8,0,1.1-0.5c1.1-1.5-1.9-5-2.1-6.5
		c-0.2-2.1,2.3-5.4,3.7-7.4l19.7-26.7l5.1,3.8c-2.3,7.5-12.1,39-11.8,44.6c0.1,4.3,2.9,6.7,5.5,8.6c0.7,0.6,1.7,2.1,2.8,0.6
		c0.7-1-1.2-3.8-0.8-5.9c0.5-2.3,1.2-4.5,1.8-6.9l10.8-37.5C437.6,109,448.3,102.2,455.8,92 M501.7,124.8l-35.2,38.3l-10.4-14
		L501.7,124.8L501.7,124.8z M518.8,116.9c0.7-0.9,0.9-1.8,0.5-2.3c-0.5-0.6-1.5-0.6-2.4-0.1l-85.3,44.5c-7.5,3.9-8.6,2.9-13.1,0.1
		c-0.3-0.2-0.9-0.1-1.5,0.4c-0.5,0.4-0.8,0.8-0.5,1.1l10.6,14c0.3,0.4,0.8,0.3,1.3,0c2.5-1.9-4.9-6,2.1-11.3
		c6.6-5,14.6-8.4,21.8-12.1l11.2,15.1c-4.6,5.2-12.2,14.8-17.6,18.9c-5.8,4.4-7.8-2.8-10.1-1.1c-0.5,0.4-0.8,0.8-0.5,1.1l13.3,17.6
		c0.3,0.4,0.8,0.3,1.3,0c0.6-0.5,0.7-1.1,0.5-1.4c-1.8-4.1-2.1-5.8,2.8-11.2L518.8,116.9L518.8,116.9z M564.6,201.4
		c-3.8-11.1-8-22.2-12.1-33.2c-0.2-0.4-0.7-0.6-1.3-0.3c-1.7,0.6-1.2,5.1-1.9,6.5c-1,2-4.7,3.4-7,4.2l-77.9,29.1
		c-2.5,0.9-5.8,2-8,1.4c-1.7-0.5-4.2-4.2-5.6-3.6c-0.6,0.2-1,0.5-0.8,1l7.5,19.9c0.2,0.4,0.6,0.4,1.2,0.2c1.4-0.5,0.7-5.2,1.4-6.8
		c1.2-2.1,4.4-3.6,7.1-4.6l33.6-12.6l2.3,6.1c2.9,7.6-12.2,13.6,11.5,15.4c0.2,0.4,0.6,0.4,1.2,0.2c4.1-1.2,8.6-3.4,12.6-4.9
		c5.9-2.2,11.8-4.2,17.7-6.4c0.6-0.2,0.9-0.7,0.8-0.9c-0.6-1.6-15,2.5-17.6-4.4l-2.3-6.1l49.4-18.5c1.7,4.6,3.5,9,5.3,13.7
		c0.9,2.3,0.3,3.9-2.5,6.2c-3.6,2.8-22.7,11.5-28.3,14.1l-0.3,0.4l0.5,0.1l32.9-11.6C563.9,204.8,565.2,203,564.6,201.4"/>
</g>
</svg>
